<svg width="13" height="13" viewBox="0 0 13 13" fill="none" xmlns="http://www.w3.org/2000/svg">
<path d="M11.0486 3.2835C10.876 3.11097 10.6052 3.08553 10.4035 3.22297C9.64362 3.74089 5.83239 6.34523 5.42279 6.7548C4.8288 7.34882 4.8288 8.31528 5.42279 8.9093C5.71978 9.20627 6.10993 9.35478 6.50003 9.35478C6.89014 9.35478 7.28026 9.20627 7.57728 8.9093C7.98686 8.4997 10.5912 4.68846 11.1091 3.92862C11.2465 3.72695 11.2211 3.45608 11.0486 3.2835ZM6.85908 8.19112C6.66111 8.38915 6.33893 8.38915 6.14096 8.19112C5.94296 7.99315 5.94294 7.67107 6.14086 7.47308C6.30001 7.31581 7.38208 6.54409 8.71341 5.61867C7.78802 6.95001 7.0163 8.03203 6.85908 8.19112Z" fill="white"/>
<path d="M2.3418 10.194L1.71491 10.4998C1.2562 9.68113 1.01563 8.7674 1.01563 7.83203C1.01563 7.14671 1.14199 6.49034 1.37262 5.885L2.09094 6.22955C2.16178 6.26353 2.23656 6.27962 2.31022 6.27962C2.49945 6.27962 2.68112 6.17336 2.76844 5.99131C2.88971 5.73845 2.78307 5.43511 2.53018 5.31381L1.82097 4.97363C2.70245 3.53601 4.22759 2.53372 5.99221 2.37096V3.13474C5.99221 3.41521 6.21956 3.64255 6.50003 3.64255C6.78049 3.64255 7.00784 3.41521 7.00784 3.13474V2.37058C7.61285 2.42566 8.19825 2.57973 8.75398 2.83059C9.00953 2.94599 9.31034 2.83226 9.42574 2.5767C9.54114 2.32107 9.42746 2.02032 9.17183 1.90492C8.32973 1.5248 7.4308 1.33203 6.5 1.33203C4.76379 1.33203 3.1315 2.00813 1.90379 3.23582C0.676127 4.46353 0 6.09582 0 7.83203C0 9.11502 0.380809 10.3628 1.10127 11.4404C1.19831 11.5855 1.35875 11.666 1.52374 11.666C1.59875 11.666 1.67471 11.6494 1.74609 11.6146L2.7871 11.1068C3.03918 10.9838 3.14384 10.6798 3.02088 10.4277C2.89791 10.1757 2.59388 10.0711 2.3418 10.194Z" fill="white"/>
<path d="M12.427 5.16036C12.3116 4.90475 12.0109 4.791 11.7552 4.90645C11.4996 5.02185 11.3859 5.3226 11.5013 5.57821C11.8218 6.28808 11.9843 7.04642 11.9843 7.83216C11.9843 8.76892 11.7429 9.68413 11.2829 10.5037L10.6284 10.192C10.3752 10.0715 10.0722 10.179 9.95155 10.4322C9.83097 10.6854 9.9385 10.9884 10.1917 11.109L11.2581 11.6168C11.3283 11.6502 11.4026 11.6662 11.4762 11.6662C11.6412 11.6662 11.8017 11.5856 11.8986 11.4406C12.6191 10.3629 12.9999 9.11515 12.9999 7.83216C12.9999 6.90137 12.8071 6.00244 12.427 5.16036Z" fill="white"/>
</svg>
