<svg width="145" height="31" viewBox="0 0 145 31" fill="none" xmlns="http://www.w3.org/2000/svg">
<path fill-rule="evenodd" clip-rule="evenodd" d="M0.00193691 15.5046C-0.132017 7.03965 6.69887 0.0237439 15.26 6.15663e-05C23.6851 -0.0236208 30.5433 6.78802 30.5781 15.2389C30.6129 23.6736 23.8227 30.4674 15.5028 30.5792C6.98454 30.6932 0.0981466 23.8571 0.00193691 15.5046ZM14.4371 12.8626C14.4371 12.8633 14.4371 12.864 14.4371 12.8648C15.5361 12.8648 16.6358 12.8633 17.7356 12.8648C18.1338 12.8655 18.4083 13.0801 18.5697 13.4213C18.734 13.7684 18.6844 14.1096 18.4424 14.4167C18.2018 14.7224 17.8562 14.8089 17.5032 14.8156C16.5907 14.8334 15.676 14.8163 14.7627 14.8237C14.3697 14.8274 13.9686 14.8097 13.5867 14.883C12.1836 15.1516 10.9965 15.8191 10.0462 16.8952C9.22918 17.8203 8.72741 18.8993 8.57274 20.116C8.49059 20.7636 8.52241 21.4245 8.51649 22.0794C8.51501 22.26 8.54979 22.4443 8.59124 22.6212C8.91095 23.9829 10.3178 24.8606 11.7802 24.4876C12.7675 24.2353 13.5571 23.3923 13.6637 22.4147C13.7148 21.9484 13.7066 21.4748 13.7133 21.0048C13.7244 20.3121 14.2891 19.7105 14.9833 19.7001C15.9505 19.6846 16.9193 19.7119 17.8858 19.6831C18.4031 19.6675 18.9308 19.6261 19.4311 19.5047C22.105 18.8564 23.9663 16.5178 24.0136 13.7647C24.0292 12.8929 23.8686 12.044 23.506 11.2455C22.8458 9.79124 21.786 8.74108 20.3096 8.11868C20.0158 7.99434 19.7353 8.02025 19.4814 8.2134C18.976 8.59898 19.0781 9.39604 19.7434 9.67209C21.4811 10.3937 22.6401 12.2971 22.3152 14.342C22.1716 15.2434 21.7868 16.0182 21.1607 16.6776C20.257 17.6286 19.1284 18.0527 17.8385 18.0712C16.832 18.086 15.8255 18.0742 14.819 18.0742C14.7339 18.0742 14.648 18.0719 14.5644 18.086C13.0605 18.3391 12.0296 19.6735 12.0836 21.0115C12.0992 21.403 12.0822 21.7989 12.0385 22.189C11.9941 22.5834 11.6107 22.9364 11.1253 22.9468C10.6316 22.9572 10.2364 22.5938 10.1861 22.2149C10.0803 21.4104 10.0877 20.603 10.303 19.8148C10.8618 17.7685 12.6698 16.4223 14.7686 16.4031C15.7825 16.3934 16.7972 16.4053 17.8111 16.3979C17.9924 16.3964 18.1789 16.3727 18.3521 16.3224C19.4489 16.0027 20.1098 15.29 20.2689 14.1451C20.4006 13.1971 20.0705 12.4215 19.3519 11.8072C18.8287 11.3602 18.2041 11.2092 17.5299 11.2092C15.4547 11.2114 13.3803 11.21 11.3051 11.21C11.1889 11.21 11.0727 11.2085 10.9573 11.1981C10.5162 11.1589 10.0891 10.6394 10.138 10.2042C10.1979 9.65877 10.6124 9.29243 11.1704 9.29243C13.1679 9.29169 15.1653 9.28725 17.1635 9.29613C17.5691 9.29761 18.0442 8.97124 17.9976 8.43247C17.9584 7.9788 17.6572 7.66575 17.168 7.66575C15.1313 7.66575 13.0953 7.66427 11.0586 7.66797C10.8758 7.66797 10.6886 7.68055 10.5125 7.72347C8.59494 8.19564 7.94145 10.3833 9.0375 11.8294C9.57998 12.5451 10.3275 12.8537 11.2081 12.8596C12.2842 12.8677 13.3603 12.8626 14.4371 12.8626Z" fill="#FFB64D"/>
<path fill-rule="evenodd" clip-rule="evenodd" d="M69.8898 1.14355C70.0896 1.17242 70.2887 1.20868 70.4885 1.2294C74.2873 1.61128 77.5466 4.46353 78.3762 8.2157C79.4575 13.1091 76.5408 17.7641 71.7888 18.9764C68.8574 19.7239 66.1428 19.1496 63.7612 17.269C62.0443 15.9132 60.9445 14.1319 60.5552 11.9694C59.9706 8.72487 60.8735 5.92369 63.2528 3.63982C64.6071 2.33951 66.2405 1.54541 68.1121 1.27751C68.3934 1.23754 68.679 1.21904 68.9617 1.18796C68.9936 1.18426 69.0232 1.1591 69.0535 1.14429C69.3318 1.14355 69.6108 1.14355 69.8898 1.14355ZM74.012 10.2331C73.9691 9.88235 73.955 9.52564 73.8788 9.18224C73.4014 7.03011 71.626 5.67503 69.8683 5.5507C68.5236 5.45671 67.3735 5.86893 66.4174 6.79698C64.7714 8.39332 64.5169 10.9939 65.7957 12.9144C66.9665 14.6736 69.1046 15.3907 71.0251 14.6595C72.8982 13.9468 74.0246 12.053 74.012 10.2331Z" fill="white"/>
<path fill-rule="evenodd" clip-rule="evenodd" d="M44.846 1.65489C47.3459 1.65341 49.8459 1.64601 52.3451 1.65415C52.8373 1.65563 53.3376 1.66895 53.8194 1.75554C56.1706 2.1796 58.2028 3.8122 58.7068 6.1538C59.0746 7.86189 58.7068 9.42715 57.667 10.8237C56.6316 12.2128 55.2425 13.0691 53.5366 13.3451C52.8639 13.4532 52.1645 13.3932 51.477 13.4176C50.8605 13.4391 50.2603 13.5138 49.8252 14.0312C49.575 14.3294 49.4196 14.658 49.4218 15.0591C49.4278 16.1973 49.4241 17.3348 49.4241 18.4723C49.4241 18.5567 49.4241 18.6411 49.4241 18.7543C47.8869 18.7543 46.3661 18.7543 44.8452 18.7543C44.8452 16.369 44.8452 13.9838 44.8452 11.5985C44.9281 11.3543 44.988 11.0997 45.0968 10.8673C45.623 9.74834 46.5244 9.16664 47.7493 9.14296C49.1813 9.11484 50.6133 9.14074 52.0461 9.13186C52.3044 9.13038 52.5731 9.10448 52.8202 9.03269C53.9503 8.70632 54.5032 7.42821 53.9422 6.42837C53.5426 5.71567 52.8935 5.41891 52.092 5.41891C49.6764 5.41891 47.2608 5.41891 44.8452 5.41891C44.846 4.16374 44.846 2.90857 44.846 1.65489Z" fill="white"/>
<path fill-rule="evenodd" clip-rule="evenodd" d="M125.682 11.7071C127.013 14.0502 128.339 16.3829 129.686 18.7534C129.594 18.7534 129.529 18.7534 129.465 18.7534C127.894 18.7534 126.322 18.7504 124.751 18.7578C124.597 18.7585 124.52 18.7082 124.449 18.5794C123.521 16.9209 122.59 15.2654 121.655 13.6106C121.619 13.5484 121.546 13.464 121.489 13.4633C120.562 13.4537 119.634 13.4566 118.694 13.4566C118.694 15.2239 118.694 16.9764 118.694 18.7415C117.123 18.7415 115.564 18.7415 113.994 18.7415C113.994 13.0511 113.994 7.36435 113.994 1.6495C114.077 1.6495 114.158 1.6495 114.24 1.6495C116.927 1.6495 119.613 1.66578 122.299 1.63988C123.17 1.63174 123.961 1.84044 124.697 2.26894C125.83 2.92835 126.815 3.76019 127.368 4.97909C128.341 7.12679 128.072 9.43656 126.346 11.1343C126.143 11.3326 125.916 11.5065 125.682 11.7071ZM118.551 9.13461C119.449 9.13461 120.323 9.13683 121.196 9.13313C121.357 9.13239 121.519 9.11759 121.676 9.08502C122.73 8.86892 123.402 7.74993 123.086 6.74639C122.855 6.00928 122.104 5.44016 121.308 5.42684C120.419 5.41204 119.529 5.42092 118.64 5.42018C118.612 5.42018 118.584 5.43424 118.551 5.44238C118.551 6.67016 118.551 7.88981 118.551 9.13461Z" fill="white"/>
<path fill-rule="evenodd" clip-rule="evenodd" d="M111.391 18.7434C109.782 18.7434 108.19 18.7434 106.575 18.7434C106.321 18.0648 106.051 17.3824 105.814 16.689C105.729 16.4448 105.618 16.3745 105.36 16.3767C103.804 16.3922 102.247 16.3841 100.691 16.3841C100.606 16.3841 100.521 16.3841 100.422 16.3841C100.156 17.0983 99.8834 17.8058 99.6303 18.5199C99.5659 18.702 99.4815 18.7605 99.2876 18.759C97.7705 18.7494 96.2526 18.7538 94.7065 18.7538C94.8938 18.2498 95.0751 17.7643 95.2549 17.2774C97.1606 12.1235 99.0671 6.97035 100.968 1.81425C101.025 1.65957 101.099 1.62479 101.25 1.62553C102.458 1.63071 103.667 1.63293 104.874 1.62405C105.038 1.62257 105.102 1.68399 105.153 1.82313C107.212 7.40255 109.274 12.9805 111.335 18.5592C111.356 18.6154 111.369 18.6731 111.391 18.7434ZM103.089 7.96352C103.075 7.96352 103.06 7.96426 103.046 7.965C102.598 9.44663 102.149 10.9283 101.699 12.4195C102.616 12.4195 103.508 12.4195 104.415 12.4195C103.97 10.9223 103.53 9.44293 103.089 7.96352Z" fill="white"/>
<path fill-rule="evenodd" clip-rule="evenodd" d="M81.5578 5.41776C81.5578 4.15371 81.5578 2.91631 81.5578 1.6641C81.603 1.65892 81.6459 1.6493 81.6888 1.6493C84.3834 1.65004 87.0795 1.58788 89.7704 1.67224C92.2327 1.74995 94.8118 3.41068 95.4128 6.15561C95.771 7.79118 95.4416 9.30907 94.4781 10.676C93.4442 12.1428 92.0247 13.0413 90.2596 13.3425C89.6639 13.4439 89.0422 13.3898 88.4324 13.418C88.0956 13.4335 87.7567 13.452 87.4244 13.5053C86.7687 13.6104 86.0974 14.3223 86.1219 15.1364C86.1544 16.2502 86.13 17.3655 86.13 18.4808C86.13 18.5644 86.13 18.6488 86.13 18.7428C84.5973 18.7428 83.0839 18.7428 81.5512 18.7428C81.5512 18.6525 81.5512 18.5696 81.5512 18.4867C81.5512 16.3191 81.5364 14.1514 81.5564 11.9837C81.5697 10.5665 82.5688 9.51037 83.744 9.23358C84.0045 9.17216 84.2783 9.14255 84.5455 9.14107C85.9702 9.13219 87.3948 9.13811 88.8194 9.13589C89.6113 9.13441 90.2522 8.83172 90.6474 8.12791C91.2084 7.12733 90.6563 5.84922 89.5262 5.52285C89.279 5.45106 89.0111 5.42442 88.7521 5.42368C86.4445 5.41628 84.1377 5.41998 81.8302 5.41998C81.7488 5.41776 81.6644 5.41776 81.5578 5.41776Z" fill="white"/>
<path fill-rule="evenodd" clip-rule="evenodd" d="M145 1.66113C145 2.33238 145 2.98957 145 3.64675C145 4.19663 145 4.74576 145 5.29564C145 5.67382 144.816 5.86031 144.445 5.86031C143.052 5.86031 141.658 5.86031 140.265 5.86031C140.181 5.86031 140.098 5.86031 139.988 5.86031C139.988 10.1624 139.988 14.4459 139.988 18.7413C138.433 18.7413 136.904 18.7413 135.351 18.7413C135.351 14.4541 135.351 10.1705 135.351 5.86031C135.243 5.86031 135.161 5.86031 135.077 5.86031C133.66 5.86031 132.244 5.86031 130.827 5.86031C130.525 5.86031 130.333 5.66568 130.333 5.36224C130.333 4.20107 130.333 3.03989 130.333 1.87872C130.333 1.80989 130.333 1.7418 130.333 1.66113C135.221 1.66113 140.094 1.66113 145 1.66113Z" fill="white"/>
<path d="M47.8081 25.1585C46.8139 25.1585 46.0599 25.9403 46.0599 26.972C46.0599 28.0115 46.8147 28.8029 47.8081 28.8029C48.3418 28.8029 48.9582 28.5086 49.4092 28.0481L50.3938 29.1059C49.7034 29.8329 48.6726 30.303 47.7158 30.303C45.7743 30.303 44.3291 28.8856 44.3291 26.9903C44.3291 25.1315 45.8109 23.7324 47.7794 23.7324C48.7362 23.7324 49.7391 24.1555 50.3834 24.8372L49.4083 26.0056C48.9852 25.4902 48.3688 25.1585 47.8081 25.1585Z" fill="white"/>
<path d="M55.3805 28.8661C56.1258 28.8661 56.6412 28.3594 56.6412 27.5227V23.7773H58.325V27.5227C58.325 29.2248 57.1844 30.3018 55.3709 30.3018C53.5487 30.3018 52.3804 29.2248 52.3804 27.5227V23.7773H54.065V27.5227C54.065 28.3498 54.617 28.8661 55.3805 28.8661Z" fill="white"/>
<path d="M63.2131 25.0742C62.8082 25.0742 62.541 25.2214 62.541 25.5156C62.541 26.583 65.9364 25.9753 65.9364 28.2947C65.9364 29.6102 64.7767 30.2823 63.3419 30.2823C62.265 30.2823 61.1427 29.8862 60.3696 29.2515L61.0226 27.936C61.6851 28.5062 62.6881 28.9111 63.3602 28.9111C63.8573 28.9111 64.1699 28.7274 64.1699 28.3861C64.1699 27.2908 60.7745 27.9534 60.7745 25.6715C60.7745 24.4666 61.7957 23.7021 63.3515 23.7021C64.2987 23.7021 65.2564 23.9964 65.9277 24.4291L65.293 25.7629C64.6113 25.3781 63.7459 25.0742 63.2131 25.0742Z" fill="white"/>
<path d="M73.1414 23.7773V25.1669H71.2086V30.2278H69.5248V25.1669H67.6104V23.7773H73.1414Z" fill="white"/>
<path d="M81.4417 26.997C81.4417 28.8837 79.9512 30.301 77.954 30.301C75.9568 30.301 74.4663 28.8837 74.4663 26.997C74.4663 25.12 75.9568 23.7305 77.954 23.7305C79.9512 23.7305 81.4417 25.1287 81.4417 26.997ZM76.1962 27.0066C76.1962 28.0557 77.0155 28.8654 77.9723 28.8654C78.9387 28.8654 79.7118 28.0557 79.7118 27.0066C79.7118 25.9575 78.9387 25.1661 77.9723 25.1661C77.0059 25.1661 76.1962 25.9575 76.1962 27.0066Z" fill="white"/>
<path d="M85.4997 23.7773L87.2113 27.541L88.9229 23.7773H90.7634V30.2278H89.2729L89.2642 26.1419L87.7641 29.5835H86.6593L85.1593 26.1419V30.2278H83.6592V23.7773H85.4997Z" fill="white"/>
<path d="M99.9565 25.1565C98.9632 25.1565 98.2083 25.9384 98.2083 26.97C98.2083 28.0096 98.9632 28.801 99.9565 28.801C100.49 28.801 101.107 28.5067 101.558 28.0461L102.542 29.1039C101.853 29.8309 100.821 30.301 99.8643 30.301C97.9228 30.301 96.4775 28.8837 96.4775 26.9883C96.4775 25.1296 97.9593 23.7305 99.9278 23.7305C100.885 23.7305 101.888 24.1536 102.532 24.8353L101.557 26.0037C101.134 25.4882 100.518 25.1565 99.9565 25.1565Z" fill="white"/>
<path d="M106.481 23.7773L108.193 27.541L109.904 23.7773H111.745V30.2278H110.254L110.245 26.1419L108.745 29.5835H107.64L106.14 26.1419V30.2278H104.64V23.7773H106.481Z" fill="white"/>
<path d="M116.741 25.0742C116.336 25.0742 116.07 25.2214 116.07 25.5156C116.07 26.583 119.465 25.9753 119.465 28.2947C119.465 29.6102 118.306 30.2823 116.871 30.2823C115.794 30.2823 114.672 29.8862 113.898 29.2515L114.551 27.936C115.214 28.5062 116.217 28.9111 116.889 28.9111C117.386 28.9111 117.699 28.7274 117.699 28.3861C117.699 27.2908 114.303 27.9534 114.303 25.6715C114.303 24.4666 115.325 23.7021 116.879 23.7021C117.828 23.7021 118.784 23.9964 119.456 24.4291L118.822 25.7629C118.14 25.3781 117.276 25.0742 116.741 25.0742Z" fill="white"/>
</svg>
