<svg width="15" height="16" viewBox="0 0 15 16" fill="none" xmlns="http://www.w3.org/2000/svg">
<path d="M9.40118 2.98242H2.80209C2.53089 2.98242 2.3501 3.16322 2.3501 3.43441C2.3501 3.70561 2.53089 3.88641 2.80209 3.88641H9.40118C9.67238 3.88641 9.85318 3.70561 9.85318 3.43441C9.94357 3.16322 9.67238 2.98242 9.40118 2.98242Z" fill="white"/>
<path d="M9.40118 5.33398H2.80209C2.53089 5.33398 2.3501 5.51478 2.3501 5.78598C2.3501 6.05717 2.53089 6.23797 2.80209 6.23797H9.40118C9.67238 6.23797 9.85318 6.05717 9.85318 5.78598C9.94357 5.60518 9.67238 5.33398 9.40118 5.33398Z" fill="white"/>
<path d="M9.40118 7.77344H2.80209C2.53089 7.77344 2.3501 7.95423 2.3501 8.22543C2.3501 8.49663 2.53089 8.67742 2.80209 8.67742H9.40118C9.67238 8.67742 9.85318 8.49663 9.85318 8.22543C9.94357 7.95423 9.67238 7.77344 9.40118 7.77344Z" fill="white"/>
<path d="M9.40118 10.125H2.80209C2.53089 10.125 2.3501 10.3058 2.3501 10.577C2.3501 10.8482 2.53089 11.029 2.80209 11.029H9.40118C9.67238 11.029 9.85318 10.8482 9.85318 10.577C9.94357 10.3962 9.67238 10.125 9.40118 10.125Z" fill="white"/>
<path d="M10.8478 0H10.3054H9.40145H0.994383C0.451991 0 0 0.451998 0 0.994389V12.8366C0 13.379 0.451991 13.831 0.994383 13.831H10.8478C11.3902 13.831 11.8422 13.379 11.8422 12.8366V0.994389C11.8422 0.3616 11.3902 0 10.8478 0ZM10.8478 12.7462H1.08478V0.903985H9.49185H10.3958H10.9382V12.7462H10.8478Z" fill="white"/>
<path d="M13.2877 3.07422H3.16309V15.1876H13.2877V3.07422Z" fill="#144069"/>
<path d="M11.5701 5.24414H4.97104C4.69984 5.24414 4.51904 5.42494 4.51904 5.69613C4.51904 5.96733 4.69984 6.14813 4.97104 6.14813H11.5701C11.8413 6.14813 12.0221 5.96733 12.0221 5.69613C12.0221 5.42494 11.8413 5.24414 11.5701 5.24414Z" fill="white"/>
<path d="M11.5701 7.59375H4.97104C4.69984 7.59375 4.51904 7.77455 4.51904 8.04574C4.51904 8.31694 4.69984 8.49774 4.97104 8.49774H11.5701C11.8413 8.49774 12.0221 8.31694 12.0221 8.04574C12.0221 7.86495 11.8413 7.59375 11.5701 7.59375Z" fill="white"/>
<path d="M11.5701 10.0352H4.97104C4.69984 10.0352 4.51904 10.216 4.51904 10.4871C4.51904 10.7583 4.69984 10.9391 4.97104 10.9391H11.5701C11.8413 10.9391 12.0221 10.7583 12.0221 10.4871C12.0221 10.216 11.8413 10.0352 11.5701 10.0352Z" fill="white"/>
<path d="M11.5701 12.3848H4.97104C4.69984 12.3848 4.51904 12.5656 4.51904 12.8368C4.51904 13.108 4.69984 13.2888 4.97104 13.2888H11.5701C11.8413 13.2888 12.0221 13.108 12.0221 12.8368C12.0221 12.5656 11.8413 12.3848 11.5701 12.3848Z" fill="white"/>
<path d="M13.0168 2.16992H12.4744H11.5704H3.16333C2.62094 2.16992 2.16895 2.62191 2.16895 3.1643V15.0065C2.16895 15.5489 2.62094 16.0009 3.16333 16.0009H13.0168C13.5592 16.0009 14.0112 15.5489 14.0112 15.0065V3.1643C14.0112 2.62191 13.5592 2.16992 13.0168 2.16992ZM13.0168 15.0065H3.16333V3.1643H11.5704H12.4744H13.0168V15.0065Z" fill="white"/>
</svg>
