<svg width="15" height="18" viewBox="0 0 15 18" fill="none" xmlns="http://www.w3.org/2000/svg">
<path fill-rule="evenodd" clip-rule="evenodd" d="M11.3375 17.4036C9.31579 17.4036 7.67506 15.7637 7.67506 13.7431C7.67506 11.7224 9.31579 10.0826 11.3375 10.0826C13.3593 10.0826 15 11.7224 15 13.7431C15 15.7637 13.3593 17.4036 11.3375 17.4036ZM13.2769 12.5355C13.1876 12.4463 13.0744 12.4017 12.9577 12.4017C12.841 12.4017 12.7277 12.4463 12.6384 12.5355L10.9565 14.2165L10.2014 13.4618C10.1121 13.3726 9.99886 13.328 9.88215 13.328C9.76545 13.328 9.65217 13.3726 9.56293 13.4618C9.38787 13.6367 9.38787 13.9249 9.56293 14.0999L10.6098 15.1462C10.6167 15.1565 10.627 15.1634 10.6339 15.1736C10.7231 15.2628 10.8364 15.3074 10.9531 15.3074C11.0698 15.3074 11.1831 15.2628 11.2723 15.1736L13.2769 13.1736C13.4554 12.9952 13.4554 12.7105 13.2769 12.5355ZM10.9256 9.45137V1.17327C10.9256 0.964006 10.7883 0.826781 10.5789 0.826781H1.17735C0.967963 0.826781 0.830664 0.964006 0.830664 1.17327V13.7465C0.830664 14.0621 1.10183 14.093 1.17735 14.093H7.03318C7.05721 14.3743 7.10526 14.6522 7.18078 14.9198H1.20824C0.542334 14.9198 0 14.3743 0 13.7088V1.21101C0 0.542039 0.542334 0 1.20824 0H10.5446C11.2105 0 11.7529 0.54547 11.7529 1.21101V9.45137C11.6156 9.43765 11.4748 9.43079 11.3341 9.43079C11.1968 9.43079 11.0595 9.43765 10.9256 9.45137ZM2.17963 10.5663C2.00801 10.5663 1.86728 10.4257 1.86728 10.2541C1.86728 10.0826 2.00801 9.94195 2.17963 9.94195H9.28833C8.97597 10.11 8.68421 10.3193 8.41648 10.5629H2.17963V10.5663ZM2.14531 6.83723C1.99428 6.83723 1.86728 6.71373 1.86728 6.55935V2.76165C1.86728 2.6107 1.99085 2.48377 2.14531 2.48377H4.56522C4.71625 2.48377 4.84325 2.60727 4.84325 2.76165V6.56278C4.84325 6.71373 4.71968 6.84066 4.56522 6.84066H2.14531V6.83723ZM9.57666 8.70006H2.17963C2.00801 8.70006 1.86728 8.55941 1.86728 8.38788C1.86728 8.21634 2.00801 8.07569 2.17963 8.07569H9.57666C9.74828 8.07569 9.88902 8.21634 9.88902 8.38788C9.88558 8.56284 9.74828 8.70006 9.57666 8.70006ZM9.57666 6.83723H6.18879C6.01716 6.83723 5.87643 6.69658 5.87643 6.52505C5.87643 6.35352 6.01716 6.21286 6.18879 6.21286H9.57666C9.74828 6.21286 9.88902 6.35352 9.88902 6.52505C9.88902 6.69658 9.74828 6.83723 9.57666 6.83723ZM9.57666 3.10471H6.18879C6.01716 3.10471 5.87643 2.96406 5.87643 2.79253C5.87643 2.621 6.01716 2.48034 6.18879 2.48034H9.57666C9.74828 2.48034 9.88902 2.621 9.88902 2.79253C9.88558 2.96749 9.74828 3.10471 9.57666 3.10471ZM9.57666 4.97097H6.18879C6.01716 4.97097 5.87643 4.83032 5.87643 4.65879C5.87643 4.48726 6.01716 4.3466 6.18879 4.3466H9.57666C9.74828 4.3466 9.88902 4.48726 9.88902 4.65879C9.88558 4.83375 9.74828 4.97097 9.57666 4.97097ZM1.87071 12.1204C1.87071 11.9489 2.01144 11.8082 2.18307 11.8082H7.47941C7.37986 12.0072 7.29405 12.2165 7.2254 12.4292H2.17963C2.00801 12.4326 1.87071 12.2919 1.87071 12.1204Z" fill="white"/>
</svg>
