<svg width="13" height="14" viewBox="0 0 13 14" fill="none" xmlns="http://www.w3.org/2000/svg">
<path d="M6.5 3.56641C5.80777 3.56641 5.13108 3.77168 4.55551 4.15626C3.97993 4.54085 3.53133 5.08747 3.26642 5.72701C3.00152 6.36655 2.9322 7.07029 3.06725 7.74922C3.2023 8.42815 3.53564 9.0518 4.02513 9.54128C4.51461 10.0308 5.13825 10.3641 5.81718 10.4992C6.49612 10.6342 7.19985 10.5649 7.83939 10.3C8.47893 10.0351 9.02556 9.58647 9.41014 9.0109C9.79473 8.43533 10 7.75864 10 7.06641C9.99888 6.13849 9.62977 5.24891 8.97363 4.59277C8.3175 3.93664 7.42791 3.56753 6.5 3.56641ZM6.5 9.29368C6.05949 9.29368 5.62887 9.16305 5.26259 8.91831C4.89632 8.67358 4.61085 8.32573 4.44227 7.91875C4.27369 7.51176 4.22959 7.06393 4.31553 6.63189C4.40147 6.19984 4.61359 5.80298 4.92508 5.49149C5.23657 5.18 5.63343 4.96787 6.06548 4.88193C6.49753 4.79599 6.94536 4.8401 7.35234 5.00867C7.75932 5.17725 8.10717 5.46273 8.35191 5.829C8.59665 6.19527 8.72727 6.62589 8.72727 7.06641C8.72638 7.65684 8.49143 8.22283 8.07393 8.64033C7.65643 9.05783 7.09043 9.29278 6.5 9.29368Z" fill="white"/>
<path d="M12.7902 8.93432L11.8801 8.17154C11.9571 7.81939 12.0011 7.41498 12.0011 7C12.0011 6.58501 11.9571 6.18061 11.8734 5.79113L11.8801 5.82846L12.7902 5.06568C12.8958 4.97796 12.9671 4.85456 12.991 4.7179C13.0148 4.58124 12.9898 4.4404 12.9203 4.32095L12.9216 4.32344L11.9871 2.67594C11.9191 2.55536 11.811 2.46352 11.6823 2.41707C11.5536 2.37062 11.4128 2.37263 11.2855 2.42272L11.2891 2.42147L10.1841 2.84268C9.61918 2.32196 8.95398 1.9266 8.23083 1.68172L8.19172 1.67052L7.99798 0.487157C7.97597 0.351161 7.90724 0.227539 7.80404 0.13832C7.70084 0.0491016 7.56987 8.31884e-05 7.43448 3.10869e-07H5.56247C5.42756 -0.000141756 5.29697 0.0484146 5.19391 0.13704C5.09085 0.225665 5.02199 0.348617 4.99958 0.484046L4.99897 0.487157L4.80523 1.67052C4.06573 1.91523 3.38533 2.31615 2.80854 2.84704L2.81343 2.84268L1.70843 2.42147C1.58197 2.37283 1.44265 2.37146 1.31528 2.4176C1.18791 2.46375 1.08077 2.55441 1.01292 2.67345L1.0117 2.67594L0.0772246 4.32344C0.00916171 4.44273 -0.014993 4.58278 0.00908092 4.71853C0.0331548 4.85429 0.103887 4.9769 0.208626 5.06444L0.209848 5.06506L1.11988 5.82784C1.04287 6.17998 0.998868 6.58439 0.998868 6.99938C0.998868 7.41436 1.04287 7.81877 1.1266 8.20825L1.11988 8.17092L0.209848 8.93369C0.104182 9.02142 0.0329326 9.14482 0.00904496 9.28148C-0.0148426 9.41813 0.0102164 9.55898 0.0796693 9.67843L0.078447 9.67594L1.01292 11.3234C1.08077 11.4441 1.18883 11.5361 1.31755 11.5827C1.44626 11.6292 1.5871 11.6273 1.71455 11.5773L1.71088 11.5785L2.81587 11.1573C3.38082 11.678 4.04602 12.0734 4.76917 12.3183L4.80828 12.3295L5.00202 13.5128C5.02404 13.6488 5.09276 13.7725 5.19596 13.8617C5.29916 13.9509 5.43013 13.9999 5.56552 14H7.43753C7.57244 14.0001 7.70303 13.9516 7.80609 13.863C7.90915 13.7743 7.97801 13.6514 8.00042 13.516L8.00103 13.5128L8.19477 12.3295C8.93427 12.0848 9.61467 11.6838 10.1915 11.153L10.1866 11.1573L11.2916 11.5785C11.418 11.6272 11.5574 11.6285 11.6847 11.5824C11.8121 11.5363 11.9192 11.4456 11.9871 11.3265L11.9883 11.3241L12.9228 9.67656C12.9908 9.55727 13.015 9.41722 12.9909 9.28146C12.9668 9.14571 12.8961 9.0231 12.7914 8.93556L12.7902 8.93432ZM11.3392 10.5999L9.96105 10.0741L9.75264 10.2882C9.18658 10.8698 8.47999 11.2893 7.704 11.5045L7.67161 11.512L7.38497 11.5891L7.14295 13.0661H5.85705L5.61503 11.5891L5.32839 11.512C4.54055 11.2991 3.82252 10.8767 3.24797 10.2882L3.03956 10.0741L1.66137 10.5999L1.01842 9.46627L2.15398 8.51498L2.07636 8.22442C1.9749 7.85735 1.91684 7.43614 1.91684 7.00062C1.91684 6.56511 1.9749 6.1439 2.0843 5.74384L2.07636 5.77682L2.15398 5.48627L1.01842 4.53497L1.66137 3.40139L3.03956 3.92712L3.24797 3.71309C3.81403 3.13148 4.52062 2.71196 5.29661 2.49676L5.329 2.48929L5.61564 2.41214L5.85766 0.935117H7.14356L7.38558 2.41214L7.67222 2.48929C8.46006 2.70212 9.17809 3.1245 9.75264 3.71309L9.96105 3.92712L11.3392 3.40139L11.9822 4.53497L10.8466 5.48627L10.9243 5.77682C11.0257 6.1439 11.0838 6.56511 11.0838 7.00062C11.0838 7.43614 11.0257 7.85735 10.9163 8.2574L10.9243 8.22442L10.8466 8.51498L11.9822 9.46627L11.3392 10.5999Z" fill="white"/>
</svg>
