<svg width="14" height="16" viewBox="0 0 14 16" fill="none" xmlns="http://www.w3.org/2000/svg">
<path d="M6.73636 7.8H6.82499C7.71135 7.8 8.42045 7.44545 8.95226 6.91364C10.1045 5.58409 9.92726 3.45682 9.92726 3.19091C9.83863 1.59546 9.0409 0.797727 8.42045 0.443182C7.97726 0.177273 7.44545 0 6.73636 0C6.38181 0 5.76135 0.0886364 5.1409 0.443182C4.52044 0.797727 3.72272 1.59546 3.63408 3.19091C3.63408 3.45682 3.45681 5.67273 4.60908 6.91364C5.05226 7.53409 5.84999 7.8 6.73636 7.8ZM6.73636 6.91364V6.825C6.1159 6.825 5.67272 6.64773 5.31817 6.20455C4.43181 5.22955 4.60908 3.27955 4.60908 3.19091C4.69772 1.15227 6.1159 0.975002 6.73636 0.975002V0.886364V0.975002C7.53408 0.975002 8.77499 1.32955 8.86363 3.19091V3.27955C8.86363 3.45682 9.0409 5.22955 8.15454 6.20455C7.79999 6.55909 7.35681 6.825 6.73636 6.825V6.91364Z" fill="#fff"/>
<path d="M13.2068 12.3201H13.1182H13.2068V12.2315C13.2068 11.611 13.1182 10.1042 11.7 9.66101C10.2818 9.30647 9.12954 8.50874 9.12954 8.50874C8.86364 8.33147 8.59773 8.4201 8.42045 8.59737C8.24318 8.86328 8.33182 9.12919 8.50909 9.30646C8.59773 9.30646 9.83864 10.1928 11.3455 10.636C11.9659 10.9019 12.0545 11.611 12.1432 12.2315V12.3201C12.1432 12.586 12.1432 12.9406 12.0545 13.2065C11.4341 13.561 9.57273 14.4474 6.64773 14.4474C3.72273 14.4474 1.86136 13.561 1.24091 13.2065C1.24091 12.9406 1.15227 12.586 1.15227 12.3201C1.15227 11.611 1.24091 10.9019 1.86136 10.7246C3.27955 10.3701 4.43182 9.66101 4.69773 9.3951C4.78636 9.30647 4.875 9.21783 4.875 9.04056C4.875 8.86328 4.875 8.77464 4.78636 8.68601C4.69773 8.59737 4.60909 8.50874 4.43182 8.50874C4.25455 8.50874 4.16591 8.50874 4.07727 8.59737C4.07727 8.59737 2.925 9.3951 1.50682 9.74965C0.0886353 10.1928 0.0886364 11.6996 0 12.3201C0 12.3201 0 12.3201 0 12.4087C0 12.4974 -1.017e-06 13.3837 0.177272 13.8269C0.177272 13.9156 0.265909 14.0042 0.354545 14.0928C0.354545 14.0928 2.65909 15.5996 6.47045 15.5996C10.1045 15.5996 12.3205 14.2701 12.5864 14.0928C12.675 14.0042 12.7636 13.9156 12.7636 13.8269C13.2068 13.2951 13.2068 12.4087 13.2068 12.3201Z" fill="#fff"/>
</svg>
